<?xml version="1.0" encoding="utf-8"?>
<!-- Generator: Adobe Illustrator 26.1.0, SVG Export Plug-In . SVG Version: 6.00 Build 0)  -->
<svg version="1.1" id="Layer_2_00000165209243895259041730000005938677833545475738_"
	 xmlns="http://www.w3.org/2000/svg" xmlns:xlink="http://www.w3.org/1999/xlink" x="0px" y="0px" viewBox="0 0 272 272"
	 style="enable-background:new 0 0 272 272;" xml:space="preserve">
<style type="text/css">
	.st0{fill:#282828;stroke:#FFFFFF;stroke-width:5;stroke-miterlimit:10;}
	.st1{fill:#D3D3D3;}
	.st2{fill:#9B9B9B;}
	.st3{fill:#E6E6E6;}
	.st4{fill:#F4F4F4;}
	.st5{fill:#7D4533;}
</style>
<g id="Layer_1-2">
	<g>
		<path class="st0" d="M48.4,68.2l91.5-35.4c6.2-2.4,13.1,0.7,15.5,6.9l53.2,137.5c2.4,6.2-0.7,13.1-6.9,15.5l-91.5,35.4
			c-6.2,2.4-13.1-0.7-15.5-6.9L41.6,83.8C39.2,77.6,42.2,70.6,48.4,68.2z"/>
		<path class="st0" d="M99.3,29.1h109.3c6.6,0,12,5.4,12,12v189.7c0,6.6-5.4,12-12,12H99.3c-6.6,0-12-5.4-12-12V41.2
			C87.3,34.5,92.7,29.1,99.3,29.1z"/>
		<g>
			<path class="st1" d="M150.5,189.4c24.5,0,44.3-19.8,44.3-44.3s-19.8-44.3-44.3-44.3s-44.3,19.8-44.3,44.3
				S126.1,189.4,150.5,189.4z"/>
			<path class="st2" d="M150.2,179.8c-19.9,0-36.1-18.1-36.1-38h72.2C186.4,161.7,170.1,179.8,150.2,179.8L150.2,179.8z"/>
			<path class="st3" d="M177.1,121.6c-6.6-7.4-16.2-12.1-26.9-12.1s-20.3,4.7-26.9,12.1h-9.2v20.2c0,19.9,16.2,36.1,36.1,36.1
				c16.9,0,31.1-11.6,35-27.3l4.1-4c0,0-3-2.5-3-3.8c0-0.3,0-0.7,0-1v-20.2L177.1,121.6L177.1,121.6z"/>
			<path class="st4" d="M186.3,121.6c0,20-16.2,36.1-36.1,36.1s-36.1-16.2-36.1-36.1s16.2-36.1,36.1-36.1c13.9,0,25.9,7.8,32,19.3
				c0.4,0,0.8,0,1.2,0c12.7,0,23,10.3,23,23s-9.3,22-21.1,22.9c0.6-2.5,1-5.2,1.1-7.9c7-1.4,12.3-7.6,12.3-15
				c0-7.8-5.9-14.3-13.5-15.2C185.9,115.4,186.3,118.4,186.3,121.6z"/>
			<path class="st5" d="M150.2,153.5c17.6,0,31.9-14.3,31.9-31.9s-19.4-28.1-31.9-28.1c-10.7,0-31.9,10.4-31.9,28.1
				S132.6,153.5,150.2,153.5z"/>
			<path class="st2" d="M118.3,123.8c1.2-11.9,15-26.5,31.8-26.5s30.7,14.7,31.8,26.5c0.1-0.8,0.1-1.5,0.1-2.3
				c0-17.6-14.3-31.9-31.9-31.9s-31.9,14.3-31.9,31.9C118.3,122.3,118.3,123.1,118.3,123.8z"/>
		</g>
	</g>
</g>
</svg>
