<?xml version="1.0" encoding="UTF-8"?><svg id="Layer_2" xmlns="http://www.w3.org/2000/svg" viewBox="0 0 272 272"><defs><style>.cls-1{fill:#f4f4f4;}.cls-2{fill:#f60;}.cls-3{fill:#e6e6e6;}.cls-4{fill:#282828;stroke:#fff;stroke-miterlimit:10;stroke-width:5px;}.cls-5{fill:#d3d3d3;}.cls-6{fill:#9b9b9b;}.cls-7{fill:#7d4533;}</style></defs><g id="Layer_1-2"><rect class="cls-2" width="272" height="272"/><g><rect class="cls-4" x="64.04" y="44.77" width="122.1" height="171.46" rx="12" ry="12" transform="translate(-38.65 53.92) rotate(-21.15)"/><rect class="cls-4" x="87.29" y="29.15" width="133.26" height="213.69" rx="12" ry="12"/><g><path class="cls-5" d="m150.54,189.42c24.46,0,44.28-19.83,44.28-44.28s-19.83-44.28-44.28-44.28-44.28,19.83-44.28,44.28,19.83,44.28,44.28,44.28Z"/><path class="cls-6" d="m150.23,179.79c-19.91,0-36.12-18.1-36.12-38h72.24c0,19.91-16.21,38-36.12,38Z"/><path class="cls-3" d="m177.11,121.57c-6.62-7.39-16.21-12.05-26.88-12.05s-20.29,4.66-26.92,12.05h-9.2v20.22c0,19.91,16.21,36.12,36.12,36.12,16.86,0,31.06-11.62,35.02-27.27l4.08-4s-3.03-2.51-2.99-3.84c0-.33.01-.67.01-1v-20.22h-9.24Z"/><path class="cls-1" d="m186.31,121.57c0,19.95-16.17,36.12-36.12,36.12s-36.12-16.17-36.12-36.12,16.17-36.12,36.12-36.12c13.87,0,25.91,7.82,31.96,19.28.39-.02.79-.03,1.19-.03,12.71,0,23.03,10.32,23.03,23.03s-9.31,21.98-21.13,22.95c.65-2.54,1.02-5.19,1.1-7.92,7.01-1.4,12.33-7.62,12.33-15.03,0-7.82-5.89-14.31-13.5-15.22.75,2.89,1.14,5.93,1.14,9.06Z"/><path class="cls-7" d="m150.19,153.49c17.63,0,31.92-14.29,31.92-31.92s-19.39-28.07-31.92-28.07c-10.73,0-31.92,10.44-31.92,28.07s14.29,31.92,31.92,31.92Z"/><path class="cls-6" d="m118.35,123.83c1.16-11.93,14.97-26.48,31.84-26.48s30.68,14.74,31.84,26.49c.05-.75.08-1.51.08-2.27,0-17.63-14.29-31.92-31.92-31.92s-31.92,14.29-31.92,31.92c0,.76.03,1.51.08,2.26Z"/></g></g></g></svg>